<svg version="1.1" id="Layer_1" xmlns="http://www.w3.org/2000/svg" xmlns:xlink="http://www.w3.org/1999/xlink" x="0px" y="0px"
	 width="100%" viewBox="0 0 2048 2048" enable-background="new 0 0 2048 2048" xml:space="preserve">
<path fill="#272627" opacity="1.000000" stroke="none" 
	d="
M2049.000000,5.000000 
	C2049.000000,686.268799 2049.000000,1367.537598 2049.000000,2049.000000 
	C1367.629028,2049.000000 686.258118,2049.000000 4.444568,2048.531250 
	C3.666969,2039.773682 3.145036,2031.487305 3.030656,2023.195190 
	C2.619714,1993.403564 2.301930,1963.610229 2.070915,1933.816650 
	C2.037627,1929.523560 2.979529,1925.223022 2.948993,1920.929688 
	C2.711553,1887.544922 2.210308,1854.161621 2.084099,1820.776733 
	C2.029718,1806.392212 2.880625,1792.005859 2.950989,1777.618652 
	C3.096512,1747.864258 3.095317,1718.108276 2.973509,1688.353638 
	C2.716466,1625.564331 2.287503,1562.776001 2.069285,1499.986694 
	C2.030616,1488.859985 2.843616,1477.732666 2.956301,1466.602661 
	C3.117480,1450.682739 2.994178,1434.760132 2.995293,1418.838623 
	C2.997062,1393.583252 3.003036,1368.327759 3.003935,1343.072388 
	C3.004875,1316.651733 3.001996,1290.231079 3.000659,1263.810425 
	C2.999203,1235.055298 3.102817,1206.299561 2.952378,1177.545288 
	C2.875357,1162.823608 2.109698,1148.104614 2.088175,1133.383789 
	C2.069468,1120.588745 2.912449,1107.792847 2.911718,1094.997314 
	C2.910948,1081.536133 2.131990,1068.075317 2.118957,1054.613770 
	C2.107449,1042.727783 2.870742,1030.842651 2.956630,1018.954651 
	C3.106585,998.199036 2.999753,977.441589 2.999266,956.684875 
	C2.998108,907.263916 2.996162,857.842896 2.994620,808.421936 
	C2.993630,776.667419 3.112596,744.912292 2.962958,713.158447 
	C2.754235,668.866638 2.218838,624.576233 2.083486,580.284424 
	C2.029621,562.657776 2.700608,545.029541 2.980004,527.401001 
	C3.079158,521.144897 2.939643,514.885132 3.028472,508.628693 
	C3.056398,506.661835 3.734253,504.692047 3.671062,502.737946 
	C3.201325,488.212311 2.354209,473.693787 2.161508,459.165955 
	C2.019388,448.451599 2.797530,437.728180 2.959422,427.005707 
	C3.111774,416.915100 3.051307,406.820038 2.985419,396.727570 
	C2.683211,350.436523 2.308010,304.145905 2.070130,257.854584 
	C2.040354,252.060257 2.987530,246.259537 2.933042,240.466965 
	C2.786018,224.836807 2.180901,209.210464 2.083090,193.580582 
	C2.032238,185.454483 2.877289,177.326004 2.952013,169.195251 
	C3.100545,153.033432 3.099461,136.868362 2.952137,120.706543 
	C2.879536,112.741982 2.025332,104.779465 2.080169,96.819847 
	C2.213102,77.524658 2.724046,58.232388 2.976834,38.937557 
	C3.103444,29.273663 2.976431,19.606665 3.006957,9.941205 
	C3.024554,4.369622 3.969222,3.706347 9.622726,4.646671 
	C11.575651,4.971493 13.597384,4.970141 15.587696,4.970261 
	C266.151855,4.985295 516.716003,4.987386 767.280151,4.988240 
	C1068.867920,4.989267 1370.455566,4.987591 1672.043335,4.989257 
	C1797.695557,4.989951 1923.347778,4.996250 2049.000000,5.000000 
M923.574158,1205.246094 
	C923.373779,1205.540405 923.173401,1205.834717 922.067261,1206.375366 
	C908.393127,1206.295288 894.719055,1206.215332 880.954712,1205.553345 
	C879.510986,1204.575195 878.067200,1203.597046 875.961365,1202.170288 
	C876.192444,1204.577515 876.426819,1206.323120 876.508667,1208.075562 
	C876.584290,1209.694214 877.133118,1211.765015 876.366150,1212.863525 
	C873.595459,1216.831421 873.880554,1220.807373 874.873962,1225.209473 
	C875.807068,1229.343994 875.000366,1232.858154 869.543396,1233.024292 
	C865.837036,1233.137085 865.039917,1235.600952 864.967407,1238.838623 
	C864.747498,1248.653564 864.686707,1248.773926 854.788879,1248.946289 
	C850.447937,1249.021973 848.845581,1250.966064 848.969421,1255.106079 
	C849.113708,1259.932007 849.002563,1264.765381 849.002502,1269.595581 
	C849.002441,1280.491333 848.999268,1280.594238 859.986023,1280.934937 
	C863.002625,1281.028442 864.201355,1281.997437 864.042175,1285.027222 
	C863.903015,1287.676880 863.883850,1290.381836 864.266418,1292.995972 
	C864.650879,1295.623779 865.584656,1297.588745 869.264160,1296.527832 
	C873.568176,1295.286865 875.665100,1297.366211 874.764160,1301.771851 
	C874.235352,1304.357788 873.857605,1306.246094 876.894409,1307.374878 
	C877.379944,1307.555420 877.681335,1310.032715 877.407349,1310.174683 
	C874.827637,1311.512817 872.814392,1314.235352 868.986633,1311.742188 
	C865.435425,1309.429321 862.420349,1305.646484 857.454407,1305.799561 
	C856.671448,1305.823730 855.809326,1304.837646 855.062622,1304.222778 
	C850.834717,1300.741577 846.931580,1297.392334 841.044739,1295.989502 
	C834.332092,1294.389893 828.200073,1290.354126 821.560181,1287.257935 
	C823.014771,1285.224365 823.914551,1283.966431 825.474609,1281.785400 
	C823.068115,1281.785400 821.485107,1282.154541 820.172546,1281.715210 
	C816.439636,1280.465820 811.275024,1279.854736 809.585754,1277.164185 
	C807.904358,1274.486328 806.086182,1273.409424 804.066528,1273.684814 
	C795.538269,1274.847168 792.051636,1266.458862 785.363586,1264.300903 
	C785.005066,1264.185059 784.619019,1263.492432 784.609131,1263.060059 
	C784.491943,1257.940430 780.476868,1257.406616 776.970093,1257.169189 
	C773.008972,1256.901123 770.321472,1255.991333 767.024963,1253.000732 
	C761.540527,1248.025024 754.542786,1244.428833 747.683472,1241.370605 
	C743.881653,1239.675415 742.711487,1238.395264 745.547607,1233.983643 
	C743.272827,1234.343262 741.913818,1234.219238 740.950012,1234.777588 
	C738.564758,1236.159180 736.665527,1236.888062 735.717041,1233.313599 
	C735.586365,1232.821289 734.828430,1232.428833 734.286316,1232.122314 
	C727.955200,1228.543213 721.609802,1224.989380 715.268188,1221.428833 
	C715.439209,1221.073608 715.610229,1220.718506 715.781189,1220.363281 
	C717.923096,1220.872925 720.064941,1221.382690 723.190857,1222.126465 
	C722.640747,1220.121582 722.370422,1218.010620 722.010803,1217.995239 
	C716.940552,1217.779541 711.858154,1217.848511 706.041687,1217.848511 
	C703.228577,1213.975220 702.071167,1205.316284 693.120239,1210.859741 
	C692.091309,1209.262329 691.578796,1207.642944 690.479797,1206.938965 
	C688.449036,1205.637939 685.641785,1205.374268 685.970215,1201.901489 
	C686.219971,1199.260742 686.028198,1196.577759 686.289246,1193.938843 
	C686.505920,1191.749146 687.943542,1189.239014 687.231018,1187.549805 
	C686.736084,1186.376465 683.511780,1186.354492 682.092285,1185.974731 
	C682.394836,1182.749756 682.690369,1179.599365 682.892334,1177.446533 
	C684.903320,1175.807983 686.400818,1174.587891 687.898315,1173.367676 
	C686.779480,1172.195801 685.451965,1171.156006 684.602417,1169.813843 
	C683.805054,1168.554321 683.225830,1167.008667 683.051880,1165.530029 
	C682.510376,1160.928345 683.960510,1156.259888 680.414551,1151.854126 
	C678.016785,1148.875122 681.659668,1136.935425 684.772217,1135.778687 
	C687.868042,1134.628052 687.888733,1132.611938 688.058594,1129.981934 
	C688.696350,1120.110107 689.531616,1110.249634 690.452271,1100.399658 
	C690.529236,1099.575928 691.659363,1098.501221 692.536865,1098.169678 
	C694.791992,1097.318115 697.151123,1096.448975 699.521790,1096.262573 
	C703.434692,1095.954956 707.389526,1096.178955 711.326660,1096.178955 
	C711.321228,1096.610718 711.315735,1097.042358 711.310242,1097.474121 
	C710.699402,1097.641846 710.038391,1097.712280 709.487366,1097.996094 
	C708.025940,1098.749023 706.579834,1099.548828 705.247009,1100.497559 
	C705.151184,1100.565796 706.021790,1102.670044 706.442017,1102.669678 
	C708.491943,1102.667969 711.738953,1102.985596 712.387756,1101.895630 
	C715.498169,1096.670898 720.275146,1095.828369 725.451172,1096.097534 
	C728.497070,1096.255981 731.473694,1097.770752 734.518555,1097.920410 
	C745.382751,1098.454590 756.263062,1098.930908 767.136963,1098.925537 
	C778.424011,1098.919922 789.710693,1098.329712 801.000000,1098.000000 
	C801.000000,1098.000000 801.002441,1098.004883 801.231995,1098.625000 
	C801.231995,1099.889404 801.231995,1101.153809 801.231995,1103.698486 
	C806.659119,1102.015503 812.349426,1101.678833 815.821167,1098.730103 
	C818.686768,1096.296143 821.021667,1096.152100 824.108459,1096.760742 
	C825.429077,1097.827881 826.770020,1099.841431 828.067139,1099.813599 
	C839.172974,1099.575073 850.272705,1099.002319 861.368896,1098.425903 
	C862.805481,1098.351440 864.211609,1097.689819 865.631897,1097.300171 
	C864.424500,1095.531860 863.217102,1093.763428 862.029907,1091.200928 
	C862.024048,1087.803833 862.018127,1084.406860 862.684265,1080.986572 
	C863.307007,1080.602539 863.929749,1080.218628 864.552490,1079.834595 
	C863.705750,1079.220459 862.858948,1078.606201 862.008667,1077.161133 
	C862.009766,1075.776245 862.010925,1074.391479 862.782349,1072.782471 
	C862.972351,1066.387329 863.174316,1059.992310 863.295532,1053.595825 
	C863.299194,1053.402954 862.459656,1053.194092 862.008911,1052.056274 
	C862.010864,1032.707153 862.012756,1013.357910 862.728577,993.903320 
	C867.163025,990.794800 868.735352,979.694885 865.131165,976.007446 
	C864.454224,975.314819 863.071838,975.311584 862.010071,974.194153 
	C862.011597,973.132629 862.013123,972.071106 862.809265,970.960205 
	C866.263184,968.180359 865.915527,963.888672 861.376709,960.890503 
	C861.249207,959.593689 861.121704,958.296814 861.673523,956.980408 
	C862.087708,956.311523 863.019531,955.314880 862.835754,955.024475 
	C861.044800,952.195862 856.669983,952.242310 853.332520,955.000000 
	C852.887512,955.000000 852.442566,955.000000 851.376953,954.446106 
	C840.845703,954.155090 830.315918,953.760254 819.782715,953.603516 
	C810.095703,953.459412 800.326660,955.730469 790.749451,952.264587 
	C789.377686,951.768127 787.534973,952.450684 785.936279,952.734741 
	C784.023254,953.074768 782.145142,953.904297 780.239929,953.943420 
	C773.083130,954.090698 765.918091,954.122009 758.764038,953.918152 
	C756.975586,953.867126 755.010559,953.090881 753.486328,952.096619 
	C750.043091,949.850464 740.610535,948.710327 738.232483,951.117493 
	C732.352478,957.069336 725.755005,952.714478 719.171875,953.897339 
	C721.406311,946.858398 720.159546,945.116333 713.813904,945.004211 
	C712.482239,944.980652 711.147949,944.953979 709.818176,945.008850 
	C707.243408,945.115112 706.206177,943.966370 704.688232,941.637634 
	C701.715637,937.077271 698.018494,932.154968 693.390808,929.763000 
	C689.453857,927.727966 688.738159,925.778381 689.015564,922.305298 
	C689.389038,917.629761 688.812012,913.543762 683.604858,912.428162 
	C683.604858,902.011780 683.604858,891.947021 683.604858,881.536255 
	C689.302979,880.385376 688.979004,875.822327 689.139771,871.148926 
	C689.210571,869.091309 690.321228,866.598816 691.793152,865.151184 
	C695.709106,861.299988 700.082520,857.914490 704.254639,854.321167 
	C704.480957,854.126282 704.678833,853.704163 704.638977,853.423523 
	C704.073181,849.438538 703.463806,845.459778 703.009644,842.441101 
	C703.775024,839.941406 704.379211,837.968262 705.097839,835.368225 
	C705.731934,834.909668 706.366089,834.451172 707.307800,834.566101 
	C711.952698,837.426880 710.906433,832.815002 712.000000,831.000000 
	C712.000000,831.000000 712.004211,830.991882 712.904907,830.995789 
	C716.232361,830.353821 721.853882,833.419678 721.350891,825.532471 
	C721.900940,825.350098 722.450989,825.167725 723.733398,824.969116 
	C724.488953,823.979370 725.244446,822.989685 726.466980,821.674316 
	C726.977173,821.123047 727.487366,820.571777 728.410889,820.523499 
	C729.147278,820.898438 730.047546,821.758423 730.594849,821.573608 
	C736.381470,819.619629 741.015259,814.620605 747.746399,815.112488 
	C747.843323,815.119568 747.935364,814.837341 748.069092,814.751160 
	C749.233154,814.000366 750.406250,813.263550 751.576721,812.522583 
	C752.051147,814.015076 752.525574,815.507507 752.160522,817.000000 
	C747.323730,816.381104 744.918701,818.483093 745.001526,823.385437 
	C745.026733,824.881409 744.528503,826.637512 745.146423,827.814148 
	C746.101318,829.632385 747.810181,831.054749 749.199219,832.644897 
	C750.453430,831.087646 752.518738,829.660278 752.793152,827.946228 
	C753.364319,824.377869 752.987366,820.657776 753.817932,816.999390 
	C759.771729,816.627075 761.056641,815.416870 760.950439,809.695496 
	C760.908936,807.459290 760.322388,805.233154 759.999390,802.997009 
	C759.999390,802.997009 760.008057,802.982910 760.424561,802.753357 
	C760.683777,802.555359 760.872314,802.304321 761.530029,801.477844 
	C765.789856,800.143066 771.484985,800.036743 773.945557,797.161987 
	C777.007385,793.584534 780.175598,792.896179 784.000366,792.219360 
	C784.351624,792.157227 784.661133,791.626587 784.911194,791.259766 
	C788.150513,786.508606 792.498474,783.376404 798.101196,781.925293 
	C801.118896,781.143799 804.997253,780.989075 806.869019,779.016174 
	C811.365417,774.276978 815.243286,769.412048 822.057190,767.419556 
	C825.561951,766.394714 828.372742,762.996704 832.043457,760.264465 
	C832.360352,762.946716 832.529297,764.376404 832.778320,766.484009 
	C836.723022,763.525452 841.945251,761.614380 842.831909,758.477661 
	C844.190186,753.673035 848.347290,752.500610 850.292847,748.778015 
	C851.179016,749.450134 851.678894,749.857849 852.206848,750.225281 
	C856.504272,753.216431 858.019775,752.575195 859.044189,747.426208 
	C859.230042,746.492126 859.521729,745.448120 860.115845,744.756775 
	C861.015930,743.709351 873.595337,746.962097 873.812134,748.335938 
	C874.216614,750.898376 874.321045,753.513977 874.449707,756.112488 
	C874.578613,758.715149 873.501343,762.326660 874.828125,763.759827 
	C881.220154,770.664062 876.789917,777.771240 875.375122,784.374207 
	C873.526611,793.001465 873.677917,801.251099 875.237793,809.791504 
	C876.073242,814.365662 877.673096,820.463928 875.548035,823.538025 
	C872.070068,828.569336 873.908936,831.319824 876.588257,834.761780 
	C878.528870,837.254883 879.100464,839.334656 875.865784,841.208313 
	C873.708069,842.458252 871.665161,844.293091 873.993225,846.674438 
	C875.952454,848.678406 878.525208,848.763428 880.864563,845.661682 
	C881.570374,845.755493 882.276123,845.849365 883.076477,846.651855 
	C884.282166,850.461609 886.888245,848.135620 889.799683,848.002075 
	C890.875122,848.004089 891.950500,848.006104 893.959473,848.008362 
	C900.299438,848.008850 906.639404,848.009277 913.873718,848.004333 
	C916.255676,848.006165 918.637573,848.007996 921.902710,848.008057 
	C924.259521,848.009399 926.616333,848.010681 929.913818,848.005859 
	C950.948242,848.006348 971.982666,848.006836 993.900085,848.007141 
	C996.260376,848.007202 998.620667,848.007263 1001.874268,848.004395 
	C1004.254089,848.005371 1006.633911,848.006348 1009.856018,848.006592 
	C1015.988464,848.473450 1013.444946,843.820068 1013.995178,840.496338 
	C1013.995178,840.496338 1014.000000,840.000000 1014.701050,839.836914 
	C1016.712830,837.906738 1016.865295,836.239197 1014.008606,834.058838 
	C1014.005737,826.040039 1014.002869,818.021240 1014.002808,809.068237 
	C1014.002686,804.046326 1014.002563,799.024475 1013.998657,793.064941 
	C1013.999084,774.375793 1013.999512,755.686707 1014.003052,736.060791 
	C1014.002869,728.375793 1014.002686,720.690857 1013.999939,712.067810 
	C1014.000610,688.377319 1014.001221,664.686829 1014.002502,640.123535 
	C1014.002930,638.084778 1014.003296,636.046082 1014.002502,633.069092 
	C1014.002502,598.376953 1014.002441,563.684814 1014.004639,528.060486 
	C1014.003845,523.041809 1014.002991,518.023071 1013.997620,512.146423 
	C1014.006531,510.430206 1014.015503,508.714020 1014.490662,506.482605 
	C1014.490662,502.355835 1014.490662,498.229034 1014.490662,494.102264 
	C1014.114563,494.108185 1013.738525,494.114136 1013.362427,494.120056 
	C1014.133545,493.025208 1014.904663,491.930359 1015.675781,490.835480 
	C1012.953674,490.211365 1010.460449,490.087311 1008.740845,491.180389 
	C1004.205078,494.063507 999.940613,497.392822 995.706787,500.720825 
	C994.248596,501.867035 993.200012,503.534363 991.171570,504.983002 
	C988.872437,505.723846 986.573364,506.464691 984.274231,507.205536 
	C984.411133,507.681885 984.548096,508.158234 984.684998,508.634583 
	C985.606323,508.812836 986.527588,508.991058 987.043335,509.729034 
	C980.161133,513.777832 973.270569,517.812378 966.398071,521.877563 
	C906.562744,557.271545 846.725769,592.662903 786.899170,628.071655 
	C738.374390,656.791443 689.863220,685.534424 641.345703,714.266541 
	C609.586609,733.074463 577.804199,751.843445 546.133484,770.798950 
	C544.528809,771.759338 542.930664,774.323242 542.928772,776.142273 
	C542.754578,940.455322 542.794983,1104.768677 542.533081,1269.081421 
	C542.520386,1277.042603 544.886414,1281.294800 551.893677,1285.392578 
	C608.355286,1318.410522 664.526794,1351.924805 720.751648,1385.347046 
	C736.109619,1394.476318 751.295044,1403.896240 766.655151,1413.022095 
	C781.339966,1421.746582 796.220947,1430.141235 810.889832,1438.892090 
	C848.817993,1461.518799 886.637329,1484.328003 924.581482,1506.927856 
	C941.066711,1516.746948 957.784241,1526.175049 974.333740,1535.887329 
	C985.092285,1542.201172 995.731995,1548.717285 1006.440857,1555.116333 
	C1008.070007,1556.089966 1009.785706,1556.918701 1012.019226,1558.112549 
	C1012.019226,1440.362183 1012.019226,1323.446045 1011.670227,1206.134888 
	C1011.391418,1204.858154 1011.112549,1203.581543 1010.833740,1202.304810 
	C1009.548462,1202.878784 1008.194153,1203.339478 1007.002258,1204.066528 
	C1006.202209,1204.554688 1005.632385,1205.420044 1004.049866,1206.337280 
	C981.721069,1206.287109 959.392212,1206.237061 936.959106,1205.570435 
	C936.537476,1205.237793 936.115784,1204.905029 935.694092,1204.572388 
	C935.444031,1205.108398 935.194031,1205.644287 934.131897,1206.426758 
	C932.447449,1206.350098 930.763062,1206.273438 928.592896,1205.606079 
	C927.077576,1205.399170 925.562195,1205.192261 923.574158,1205.246094 
M1040.107544,761.500000 
	C1040.118530,849.823059 1040.140747,938.146179 1040.137329,1026.469238 
	C1040.133789,1114.958374 1040.067993,1203.447388 1040.096802,1291.936523 
	C1040.125610,1380.106689 1039.979248,1468.278442 1040.249756,1557.619507 
	C1052.817505,1550.192017 1063.766479,1543.692749 1074.743164,1537.240601 
	C1094.239380,1525.780396 1113.744019,1514.334106 1133.262085,1502.911133 
	C1144.886597,1496.107666 1156.488403,1489.261597 1168.223267,1482.652954 
	C1171.338135,1480.898804 1172.031982,1478.637695 1172.030396,1475.341553 
	C1171.986816,1384.186157 1172.048462,1293.030640 1172.039917,1201.875244 
	C1172.025269,1045.894531 1171.971802,889.913818 1171.975464,733.933105 
	C1171.975464,731.965088 1172.512207,729.997009 1172.890015,727.399658 
	C1174.967651,728.511658 1176.137451,729.072266 1177.242554,729.740051 
	C1184.359985,734.040894 1191.420776,738.437378 1198.579346,742.668457 
	C1221.201782,756.039551 1243.911987,769.262634 1266.487183,782.712524 
	C1287.347534,795.140747 1308.034058,807.860535 1328.880127,820.313110 
	C1343.736938,829.187988 1358.690063,837.904053 1373.701538,846.514465 
	C1376.387817,848.055176 1377.360229,849.787415 1377.348877,852.841309 
	C1377.212036,889.835754 1377.262695,926.830994 1377.062744,963.824951 
	C1377.040283,967.980652 1378.214478,969.280640 1382.372192,969.229858 
	C1398.519531,969.032776 1414.671021,969.093018 1430.820435,969.173340 
	C1443.978394,969.238770 1457.135498,969.575806 1470.293091,969.593811 
	C1481.284058,969.608826 1492.300537,968.843750 1503.254883,969.409607 
	C1508.321167,969.671326 1509.229004,968.219910 1509.214722,963.823914 
	C1509.097656,927.828796 1509.105835,891.833313 1509.098877,855.837891 
	C1509.093994,830.674988 1508.995117,805.510681 1509.256958,780.350342 
	C1509.305176,775.710938 1509.150024,772.090515 1504.569336,769.464172 
	C1488.859253,760.457092 1473.290283,751.203674 1457.693604,741.999817 
	C1428.324219,724.668274 1398.968750,707.312805 1369.615356,689.954163 
	C1338.710571,671.678162 1307.817993,653.381653 1276.914673,635.103271 
	C1243.273560,615.205688 1209.622192,595.325745 1175.983154,575.424805 
	C1153.367920,562.045532 1130.744995,548.679260 1108.165527,535.239990 
	C1089.311890,524.018127 1070.531616,512.672852 1051.680542,501.446594 
	C1048.368286,499.473999 1044.866943,497.819031 1040.106934,495.307037 
	C1040.106934,584.711121 1040.106934,672.605530 1040.107544,761.500000 
z"/>
<path fill="#393939" opacity="1.000000" stroke="none" 
	d="
M2049.000000,4.500000 
	C1923.347778,4.996250 1797.695557,4.989951 1672.043335,4.989257 
	C1370.455566,4.987591 1068.867920,4.989267 767.280151,4.988240 
	C516.716003,4.987386 266.151855,4.985295 15.587696,4.970261 
	C13.597384,4.970141 11.575651,4.971493 9.622726,4.646671 
	C3.969222,3.706347 3.024554,4.369622 3.006957,9.941205 
	C2.976431,19.606665 3.103444,29.273663 2.976834,38.937557 
	C2.724046,58.232388 2.213102,77.524658 2.080169,96.819847 
	C2.025332,104.779465 2.879536,112.741982 2.952137,120.706543 
	C3.099461,136.868362 3.100545,153.033432 2.952013,169.195251 
	C2.877289,177.326004 2.032238,185.454483 2.083090,193.580582 
	C2.180901,209.210464 2.786018,224.836807 2.933042,240.466965 
	C2.987530,246.259537 2.040354,252.060257 2.070130,257.854584 
	C2.308010,304.145905 2.683211,350.436523 2.985419,396.727570 
	C3.051307,406.820038 3.111774,416.915100 2.959422,427.005707 
	C2.797530,437.728180 2.019388,448.451599 2.161508,459.165955 
	C2.354209,473.693787 3.201325,488.212311 3.671062,502.737946 
	C3.734253,504.692047 3.056398,506.661835 3.028472,508.628693 
	C2.939643,514.885132 3.079158,521.144897 2.980004,527.401001 
	C2.700608,545.029541 2.029621,562.657776 2.083486,580.284424 
	C2.218838,624.576233 2.754235,668.866638 2.962958,713.158447 
	C3.112596,744.912292 2.993630,776.667419 2.994620,808.421936 
	C2.996162,857.842896 2.998108,907.263916 2.999266,956.684875 
	C2.999753,977.441589 3.106585,998.199036 2.956630,1018.954651 
	C2.870742,1030.842651 2.107449,1042.727783 2.118957,1054.613770 
	C2.131990,1068.075317 2.910948,1081.536133 2.911718,1094.997314 
	C2.912449,1107.792847 2.069468,1120.588745 2.088175,1133.383789 
	C2.109698,1148.104614 2.875357,1162.823608 2.952378,1177.545288 
	C3.102817,1206.299561 2.999203,1235.055298 3.000659,1263.810425 
	C3.001996,1290.231079 3.004875,1316.651733 3.003935,1343.072388 
	C3.003036,1368.327759 2.997062,1393.583252 2.995293,1418.838623 
	C2.994178,1434.760132 3.117480,1450.682739 2.956301,1466.602661 
	C2.843616,1477.732666 2.030616,1488.859985 2.069285,1499.986694 
	C2.287503,1562.776001 2.716466,1625.564331 2.973509,1688.353638 
	C3.095317,1718.108276 3.096512,1747.864258 2.950989,1777.618652 
	C2.880625,1792.005859 2.029718,1806.392212 2.084099,1820.776733 
	C2.210308,1854.161621 2.711553,1887.544922 2.948993,1920.929688 
	C2.979529,1925.223022 2.037627,1929.523560 2.070915,1933.816650 
	C2.301930,1963.610229 2.619714,1993.403564 3.030656,2023.195190 
	C3.145036,2031.487305 3.666969,2039.773682 4.000964,2048.531250 
	C2.345619,2048.951904 0.128268,2049.621582 0.975728,2046.493408 
	C1.143980,2045.872437 1.000000,2045.166626 1.000000,2044.500000 
	C1.000000,1363.333374 1.000000,682.166687 1.000000,1.000000 
	C682.166687,1.000000 1363.333374,0.999133 2044.500000,1.043073 
	C2046.434204,1.043198 2049.808105,-0.462265 2049.000000,4.500000 
z"/>
<path fill="#FCFCFC" opacity="1.000000" stroke="none" 
	d="
M937.063416,1206.186890 
	C959.392212,1206.237061 981.721069,1206.287109 1004.872803,1206.336304 
	C1007.803589,1206.400146 1009.911438,1206.464966 1012.019226,1206.529785 
	C1012.019226,1323.446045 1012.019226,1440.362183 1012.019226,1558.112549 
	C1009.785706,1556.918701 1008.070007,1556.089966 1006.440857,1555.116333 
	C995.731995,1548.717285 985.092285,1542.201172 974.333740,1535.887329 
	C957.784241,1526.175049 941.066711,1516.746948 924.581482,1506.927856 
	C886.637329,1484.328003 848.817993,1461.518799 810.889832,1438.892090 
	C796.220947,1430.141235 781.339966,1421.746582 766.655151,1413.022095 
	C751.295044,1403.896240 736.109619,1394.476318 720.751648,1385.347046 
	C664.526794,1351.924805 608.355286,1318.410522 551.893677,1285.392578 
	C544.886414,1281.294800 542.520386,1277.042603 542.533081,1269.081421 
	C542.794983,1104.768677 542.754578,940.455322 542.928772,776.142273 
	C542.930664,774.323242 544.528809,771.759338 546.133484,770.798950 
	C577.804199,751.843445 609.586609,733.074463 641.345703,714.266541 
	C689.863220,685.534424 738.374390,656.791443 786.899170,628.071655 
	C846.725769,592.662903 906.562744,557.271545 966.398071,521.877563 
	C973.270569,517.812378 980.161133,513.777832 987.541687,509.388947 
	C989.039429,508.403290 990.038879,507.757690 991.363831,507.048065 
	C992.572937,506.365509 993.456421,505.746948 994.668762,505.050171 
	C1000.434021,501.805267 1005.870483,498.638550 1012.294861,494.896423 
	C1012.294861,499.628326 1012.294861,503.322815 1012.203003,507.436157 
	C1012.167419,509.563934 1012.223755,511.272949 1012.176636,513.439880 
	C1012.145569,518.939514 1012.217834,523.981201 1012.201050,529.482422 
	C1012.103821,541.226868 1012.067139,552.511719 1012.093323,563.796509 
	C1012.147644,587.189819 1012.235474,610.583008 1012.196655,634.405640 
	C1012.157043,636.897949 1012.230225,638.960938 1012.209473,641.482544 
	C1012.177673,665.619751 1012.239807,689.298279 1012.191284,713.435425 
	C1012.154114,721.603882 1012.227661,729.313721 1012.208130,737.482422 
	C1012.180542,756.619568 1012.245911,775.297852 1012.201172,794.433289 
	C1012.166199,799.935242 1012.241272,804.980103 1012.223694,810.483765 
	C1012.203430,820.953003 1012.275879,830.963562 1012.248291,841.341309 
	C1011.415771,843.083557 1010.683289,844.458618 1009.512573,845.741760 
	C1006.394165,845.730347 1003.714111,845.810913 1000.687439,845.760071 
	C997.883118,845.712036 995.425293,845.795410 992.511963,845.769165 
	C971.035034,845.746460 950.013550,845.833313 928.569336,845.796753 
	C926.103943,845.754944 924.061462,845.836609 921.578186,845.814392 
	C918.432861,845.781189 915.728271,845.851868 912.637451,845.792297 
	C902.494812,845.755737 892.738342,845.849487 882.981934,845.943237 
	C882.276123,845.849365 881.570374,845.755493 880.462708,845.234741 
	C879.990479,842.812866 879.859375,840.817810 879.858765,838.822815 
	C879.848267,805.362061 879.854187,771.901367 879.856384,738.440613 
	C879.856567,734.886047 879.856384,731.331543 879.856384,727.084717 
	C876.521362,729.170654 874.056885,730.781738 871.527222,732.282898 
	C856.091187,741.442383 840.660767,750.611633 825.188782,759.710205 
	C809.610046,768.871643 793.949097,777.893799 778.397034,787.100037 
	C771.715515,791.055237 765.271912,795.410828 758.621826,799.421143 
	C751.799927,803.535095 744.857910,807.449768 737.735474,811.542969 
	C732.177612,814.737061 726.830933,817.803040 721.532043,820.949646 
	C707.397888,829.342957 693.251221,837.716492 679.207092,846.258301 
	C677.567749,847.255371 675.422668,849.246521 675.405762,850.797546 
	C675.266541,863.555603 675.575378,876.318481 675.601807,889.420532 
	C675.554565,890.481201 675.653809,891.201355 675.595093,892.302246 
	C675.437073,914.732605 675.437073,936.782043 675.437073,959.508057 
	C737.234680,959.508057 798.367859,959.508057 859.905151,959.508057 
	C859.905151,1004.127380 859.905151,1048.064209 859.802856,1092.060547 
	C859.700562,1092.119995 859.755737,1092.350098 859.360718,1092.363037 
	C857.969421,1092.447998 856.973083,1092.582642 855.976807,1092.582886 
	C802.685791,1092.599731 749.394836,1092.605347 696.103821,1092.611816 
	C689.327698,1092.612671 682.551575,1092.611938 675.952209,1092.611938 
	C675.567200,1093.858765 675.299316,1094.321655 675.299133,1094.784546 
	C675.282898,1129.923706 675.239014,1165.063232 675.428528,1200.201416 
	C675.438477,1202.042114 676.991821,1204.613525 678.592590,1205.592896 
	C695.453003,1215.908325 712.424927,1226.044312 729.454468,1236.079590 
	C748.533813,1247.322876 767.764038,1258.310791 786.821167,1269.591064 
	C814.966858,1286.251587 843.009766,1303.085449 871.122437,1319.801880 
	C873.757568,1321.368896 876.577698,1322.624878 879.696899,1324.222412 
	C879.824097,1322.565430 879.964172,1321.599121 879.962891,1320.633057 
	C879.915039,1284.492798 879.833801,1248.352417 879.848694,1212.212158 
	C879.849487,1210.186401 880.628235,1208.160889 881.044922,1206.135254 
	C894.719055,1206.215332 908.393127,1206.295288 922.767334,1206.337402 
	C923.631470,1206.240845 923.795654,1206.182251 924.259155,1206.249390 
	C926.065247,1206.315674 927.571960,1206.256348 929.078613,1206.196899 
	C930.763062,1206.273438 932.447449,1206.350098 934.730896,1206.418579 
	C935.907715,1206.335938 936.485596,1206.261475 937.063416,1206.186890 
z"/>
<path fill="#E71D28" opacity="1.000000" stroke="none" 
	d="
M1040.107178,761.000000 
	C1040.106934,672.605530 1040.106934,584.711121 1040.106934,495.307037 
	C1044.866943,497.819031 1048.368286,499.473999 1051.680542,501.446594 
	C1070.531616,512.672852 1089.311890,524.018127 1108.165527,535.239990 
	C1130.744995,548.679260 1153.367920,562.045532 1175.983154,575.424805 
	C1209.622192,595.325745 1243.273560,615.205688 1276.914673,635.103271 
	C1307.817993,653.381653 1338.710571,671.678162 1369.615356,689.954163 
	C1398.968750,707.312805 1428.324219,724.668274 1457.693604,741.999817 
	C1473.290283,751.203674 1488.859253,760.457092 1504.569336,769.464172 
	C1509.150024,772.090515 1509.305176,775.710938 1509.256958,780.350342 
	C1508.995117,805.510681 1509.093994,830.674988 1509.098877,855.837891 
	C1509.105835,891.833313 1509.097656,927.828796 1509.214722,963.823914 
	C1509.229004,968.219910 1508.321167,969.671326 1503.254883,969.409607 
	C1492.300537,968.843750 1481.284058,969.608826 1470.293091,969.593811 
	C1457.135498,969.575806 1443.978394,969.238770 1430.820435,969.173340 
	C1414.671021,969.093018 1398.519531,969.032776 1382.372192,969.229858 
	C1378.214478,969.280640 1377.040283,967.980652 1377.062744,963.824951 
	C1377.262695,926.830994 1377.212036,889.835754 1377.348877,852.841309 
	C1377.360229,849.787415 1376.387817,848.055176 1373.701538,846.514465 
	C1358.690063,837.904053 1343.736938,829.187988 1328.880127,820.313110 
	C1308.034058,807.860535 1287.347534,795.140747 1266.487183,782.712524 
	C1243.911987,769.262634 1221.201782,756.039551 1198.579346,742.668457 
	C1191.420776,738.437378 1184.359985,734.040894 1177.242554,729.740051 
	C1176.137451,729.072266 1174.967651,728.511658 1172.890015,727.399658 
	C1172.512207,729.997009 1171.975464,731.965088 1171.975464,733.933105 
	C1171.971802,889.913818 1172.025269,1045.894531 1172.039917,1201.875244 
	C1172.048462,1293.030640 1171.986816,1384.186157 1172.030396,1475.341553 
	C1172.031982,1478.637695 1171.338135,1480.898804 1168.223267,1482.652954 
	C1156.488403,1489.261597 1144.886597,1496.107666 1133.262085,1502.911133 
	C1113.744019,1514.334106 1094.239380,1525.780396 1074.743164,1537.240601 
	C1063.766479,1543.692749 1052.817505,1550.192017 1040.249756,1557.619507 
	C1039.979248,1468.278442 1040.125610,1380.106689 1040.096802,1291.936523 
	C1040.067993,1203.447388 1040.133789,1114.958374 1040.137329,1026.469238 
	C1040.140747,938.146179 1040.118530,849.823059 1040.107178,761.000000 
z"/>
<path fill="#232223" opacity="1.000000" stroke="none" 
	d="
M880.999817,1205.844238 
	C880.628235,1208.160889 879.849487,1210.186401 879.848694,1212.212158 
	C879.833801,1248.352417 879.915039,1284.492798 879.962891,1320.633057 
	C879.964172,1321.599121 879.824097,1322.565430 879.696899,1324.222412 
	C876.577698,1322.624878 873.757568,1321.368896 871.122437,1319.801880 
	C843.009766,1303.085449 814.966858,1286.251587 786.821167,1269.591064 
	C767.764038,1258.310791 748.533813,1247.322876 729.454468,1236.079590 
	C712.424927,1226.044312 695.453003,1215.908325 678.592590,1205.592896 
	C676.991821,1204.613525 675.438477,1202.042114 675.428528,1200.201416 
	C675.239014,1165.063232 675.282898,1129.923706 675.299133,1094.784546 
	C675.299316,1094.321655 675.567200,1093.858765 675.952209,1092.611938 
	C682.551575,1092.611938 689.327698,1092.612671 696.103821,1092.611816 
	C749.394836,1092.605347 802.685791,1092.599731 855.976807,1092.582886 
	C856.973083,1092.582642 857.969421,1092.447998 859.438599,1092.763062 
	C860.492188,1095.113892 861.455261,1097.091797 857.823792,1096.962646 
	C846.549133,1096.561646 835.268799,1096.321167 823.990662,1096.018433 
	C821.021667,1096.152100 818.686768,1096.296143 815.821167,1098.730103 
	C812.349426,1101.678833 806.659119,1102.015503 801.231995,1103.698486 
	C801.231995,1101.153809 801.231995,1099.889404 801.540771,1098.314697 
	C803.667969,1098.004395 805.486328,1098.004395 807.304626,1098.004395 
	C807.137817,1097.221558 806.971008,1096.438599 806.804138,1095.655762 
	C804.868591,1096.435547 802.933044,1097.215332 800.997559,1097.995117 
	C789.710693,1098.329712 778.424011,1098.919922 767.136963,1098.925537 
	C756.263062,1098.930908 745.382751,1098.454590 734.518555,1097.920410 
	C731.473694,1097.770752 728.497070,1096.255981 725.451172,1096.097534 
	C720.275146,1095.828369 715.498169,1096.670898 712.387756,1101.895630 
	C711.738953,1102.985596 708.491943,1102.667969 706.442017,1102.669678 
	C706.021790,1102.670044 705.151184,1100.565796 705.247009,1100.497559 
	C706.579834,1099.548828 708.025940,1098.749023 709.487366,1097.996094 
	C710.038391,1097.712280 710.699402,1097.641846 711.310242,1097.474121 
	C711.315735,1097.042358 711.321228,1096.610718 711.326660,1096.178955 
	C707.389526,1096.178955 703.434692,1095.954956 699.521790,1096.262573 
	C697.151123,1096.448975 694.791992,1097.318115 692.536865,1098.169678 
	C691.659363,1098.501221 690.529236,1099.575928 690.452271,1100.399658 
	C689.531616,1110.249634 688.696350,1120.110107 688.058594,1129.981934 
	C687.888733,1132.611938 687.868042,1134.628052 684.772217,1135.778687 
	C681.659668,1136.935425 678.016785,1148.875122 680.414551,1151.854126 
	C683.960510,1156.259888 682.510376,1160.928345 683.051880,1165.530029 
	C683.225830,1167.008667 683.805054,1168.554321 684.602417,1169.813843 
	C685.451965,1171.156006 686.779480,1172.195801 687.898315,1173.367676 
	C686.400818,1174.587891 684.903320,1175.807983 682.892334,1177.446533 
	C682.690369,1179.599365 682.394836,1182.749756 682.092285,1185.974731 
	C683.511780,1186.354492 686.736084,1186.376465 687.231018,1187.549805 
	C687.943542,1189.239014 686.505920,1191.749146 686.289246,1193.938843 
	C686.028198,1196.577759 686.219971,1199.260742 685.970215,1201.901489 
	C685.641785,1205.374268 688.449036,1205.637939 690.479797,1206.938965 
	C691.578796,1207.642944 692.091309,1209.262329 693.120239,1210.859741 
	C702.071167,1205.316284 703.228577,1213.975220 706.041687,1217.848511 
	C711.858154,1217.848511 716.940552,1217.779541 722.010803,1217.995239 
	C722.370422,1218.010620 722.640747,1220.121582 723.190857,1222.126465 
	C720.064941,1221.382690 717.923096,1220.872925 715.781189,1220.363281 
	C715.610229,1220.718506 715.439209,1221.073608 715.268188,1221.428833 
	C721.609802,1224.989380 727.955200,1228.543213 734.286316,1232.122314 
	C734.828430,1232.428833 735.586365,1232.821289 735.717041,1233.313599 
	C736.665527,1236.888062 738.564758,1236.159180 740.950012,1234.777588 
	C741.913818,1234.219238 743.272827,1234.343262 745.547607,1233.983643 
	C742.711487,1238.395264 743.881653,1239.675415 747.683472,1241.370605 
	C754.542786,1244.428833 761.540527,1248.025024 767.024963,1253.000732 
	C770.321472,1255.991333 773.008972,1256.901123 776.970093,1257.169189 
	C780.476868,1257.406616 784.491943,1257.940430 784.609131,1263.060059 
	C784.619019,1263.492432 785.005066,1264.185059 785.363586,1264.300903 
	C792.051636,1266.458862 795.538269,1274.847168 804.066528,1273.684814 
	C806.086182,1273.409424 807.904358,1274.486328 809.585754,1277.164185 
	C811.275024,1279.854736 816.439636,1280.465820 820.172546,1281.715210 
	C821.485107,1282.154541 823.068115,1281.785400 825.474609,1281.785400 
	C823.914551,1283.966431 823.014771,1285.224365 821.560181,1287.257935 
	C828.200073,1290.354126 834.332092,1294.389893 841.044739,1295.989502 
	C846.931580,1297.392334 850.834717,1300.741577 855.062622,1304.222778 
	C855.809326,1304.837646 856.671448,1305.823730 857.454407,1305.799561 
	C862.420349,1305.646484 865.435425,1309.429321 868.986633,1311.742188 
	C872.814392,1314.235352 874.827637,1311.512817 877.407349,1310.174683 
	C877.681335,1310.032715 877.379944,1307.555420 876.894409,1307.374878 
	C873.857605,1306.246094 874.235352,1304.357788 874.764160,1301.771851 
	C875.665100,1297.366211 873.568176,1295.286865 869.264160,1296.527832 
	C865.584656,1297.588745 864.650879,1295.623779 864.266418,1292.995972 
	C863.883850,1290.381836 863.903015,1287.676880 864.042175,1285.027222 
	C864.201355,1281.997437 863.002625,1281.028442 859.986023,1280.934937 
	C848.999268,1280.594238 849.002441,1280.491333 849.002502,1269.595581 
	C849.002563,1264.765381 849.113708,1259.932007 848.969421,1255.106079 
	C848.845581,1250.966064 850.447937,1249.021973 854.788879,1248.946289 
	C864.686707,1248.773926 864.747498,1248.653564 864.967407,1238.838623 
	C865.039917,1235.600952 865.837036,1233.137085 869.543396,1233.024292 
	C875.000366,1232.858154 875.807068,1229.343994 874.873962,1225.209473 
	C873.880554,1220.807373 873.595459,1216.831421 876.366150,1212.863525 
	C877.133118,1211.765015 876.584290,1209.694214 876.508667,1208.075562 
	C876.426819,1206.323120 876.192444,1204.577515 875.961365,1202.170288 
	C878.067200,1203.597046 879.510986,1204.575195 880.999817,1205.844238 
M712.729858,1222.509644 
	C712.988586,1222.264282 713.247314,1222.018921 713.506165,1221.773560 
	C713.404419,1221.666382 713.302734,1221.559204 713.200989,1221.452148 
	C712.942139,1221.697876 712.683289,1221.943604 712.729858,1222.509644 
z"/>
<path fill="#242325" opacity="1.000000" stroke="none" 
	d="
M675.753052,891.921448 
	C675.653809,891.201355 675.554565,890.481201 675.987915,889.326843 
	C677.347839,885.927551 678.175171,882.962585 679.337769,879.990601 
	C680.255310,879.622681 680.837463,879.261780 681.419617,878.900879 
	C680.613892,878.601379 679.808167,878.301880 679.001526,877.564880 
	C679.000427,875.085693 679.000183,873.044067 679.383423,870.985718 
	C680.485718,869.936584 681.204651,868.904236 681.923584,867.871887 
	C680.949036,867.247925 679.974548,866.623962 679.000000,865.549194 
	C678.994202,863.269653 679.446838,861.289551 678.901672,859.638916 
	C676.745972,853.112122 679.387634,848.945801 685.247559,846.182983 
	C687.609558,846.582642 689.746399,846.658752 691.820618,847.058960 
	C693.593140,847.401062 695.294006,848.115173 697.026550,848.664673 
	C696.948425,846.703552 696.926392,844.737610 696.759155,842.784119 
	C696.706665,842.170654 696.264099,841.590515 696.068848,840.650269 
	C699.086243,838.868713 702.034790,837.431946 704.983337,835.995117 
	C704.379211,837.968262 703.775024,839.941406 703.009644,842.441101 
	C703.463806,845.459778 704.073181,849.438538 704.638977,853.423523 
	C704.678833,853.704163 704.480957,854.126282 704.254639,854.321167 
	C700.082520,857.914490 695.709106,861.299988 691.793152,865.151184 
	C690.321228,866.598816 689.210571,869.091309 689.139771,871.148926 
	C688.979004,875.822327 689.302979,880.385376 683.604858,881.536255 
	C683.604858,891.947021 683.604858,902.011780 683.604858,912.428162 
	C688.812012,913.543762 689.389038,917.629761 689.015564,922.305298 
	C688.738159,925.778381 689.453857,927.727966 693.390808,929.763000 
	C698.018494,932.154968 701.715637,937.077271 704.688232,941.637634 
	C706.206177,943.966370 707.243408,945.115112 709.818176,945.008850 
	C711.147949,944.953979 712.482239,944.980652 713.813904,945.004211 
	C720.159546,945.116333 721.406311,946.858398 719.171875,953.897339 
	C725.755005,952.714478 732.352478,957.069336 738.232483,951.117493 
	C740.610535,948.710327 750.043091,949.850464 753.486328,952.096619 
	C755.010559,953.090881 756.975586,953.867126 758.764038,953.918152 
	C765.918091,954.122009 773.083130,954.090698 780.239929,953.943420 
	C782.145142,953.904297 784.023254,953.074768 785.936279,952.734741 
	C787.534973,952.450684 789.377686,951.768127 790.749451,952.264587 
	C800.326660,955.730469 810.095703,953.459412 819.782715,953.603516 
	C830.315918,953.760254 840.845703,954.155090 851.233765,954.723267 
	C842.511963,955.000305 833.933472,955.000122 825.354919,955.000122 
	C782.241699,955.000122 739.128357,954.968872 696.015259,955.043640 
	C691.225952,955.052002 686.437256,955.658569 681.649048,955.997986 
	C679.212708,956.170715 677.879822,955.292236 677.993896,952.609558 
	C678.370789,943.742310 678.670593,934.871704 679.335693,925.994202 
	C680.254028,925.624207 680.836670,925.262451 681.419373,924.900696 
	C680.612915,924.599670 679.806458,924.298584 679.000000,923.537292 
	C678.664551,913.784119 678.401123,904.487366 677.900146,895.203430 
	C677.839294,894.074097 676.499878,893.013733 675.753052,891.921448 
M711.645874,952.658142 
	C712.462463,952.956482 713.278992,953.254822 714.095520,953.553101 
	C714.174744,953.118164 714.253967,952.683167 714.333130,952.248230 
	C713.587952,952.248230 712.842712,952.248230 711.645874,952.658142 
M684.178894,952.550720 
	C684.183594,952.194763 684.191650,951.838623 684.174561,951.483765 
	C684.174133,951.474609 683.769348,951.468567 683.768616,951.478333 
	C683.740417,951.832520 683.737854,952.188782 684.178894,952.550720 
z"/>
<path fill="#232223" opacity="1.000000" stroke="none" 
	d="
M737.968506,811.451660 
	C744.857910,807.449768 751.799927,803.535095 758.621826,799.421143 
	C765.271912,795.410828 771.715515,791.055237 778.397034,787.100037 
	C793.949097,777.893799 809.610046,768.871643 825.188782,759.710205 
	C840.660767,750.611633 856.091187,741.442383 871.527222,732.282898 
	C874.056885,730.781738 876.521362,729.170654 879.856384,727.084717 
	C879.856384,731.331543 879.856567,734.886047 879.856384,738.440613 
	C879.854187,771.901367 879.848267,805.362061 879.858765,838.822815 
	C879.859375,840.817810 879.990479,842.812866 880.104553,845.255981 
	C878.525208,848.763428 875.952454,848.678406 873.993225,846.674438 
	C871.665161,844.293091 873.708069,842.458252 875.865784,841.208313 
	C879.100464,839.334656 878.528870,837.254883 876.588257,834.761780 
	C873.908936,831.319824 872.070068,828.569336 875.548035,823.538025 
	C877.673096,820.463928 876.073242,814.365662 875.237793,809.791504 
	C873.677917,801.251099 873.526611,793.001465 875.375122,784.374207 
	C876.789917,777.771240 881.220154,770.664062 874.828125,763.759827 
	C873.501343,762.326660 874.578613,758.715149 874.449707,756.112488 
	C874.321045,753.513977 874.216614,750.898376 873.812134,748.335938 
	C873.595337,746.962097 861.015930,743.709351 860.115845,744.756775 
	C859.521729,745.448120 859.230042,746.492126 859.044189,747.426208 
	C858.019775,752.575195 856.504272,753.216431 852.206848,750.225281 
	C851.678894,749.857849 851.179016,749.450134 850.292847,748.778015 
	C848.347290,752.500610 844.190186,753.673035 842.831909,758.477661 
	C841.945251,761.614380 836.723022,763.525452 832.778320,766.484009 
	C832.529297,764.376404 832.360352,762.946716 832.043457,760.264465 
	C828.372742,762.996704 825.561951,766.394714 822.057190,767.419556 
	C815.243286,769.412048 811.365417,774.276978 806.869019,779.016174 
	C804.997253,780.989075 801.118896,781.143799 798.101196,781.925293 
	C792.498474,783.376404 788.150513,786.508606 784.911194,791.259766 
	C784.661133,791.626587 784.351624,792.157227 784.000366,792.219360 
	C780.175598,792.896179 777.007385,793.584534 773.945557,797.161987 
	C771.484985,800.036743 765.789856,800.143066 761.052856,801.855225 
	C760.316345,802.429626 760.127136,802.679749 760.008057,802.982910 
	C760.008057,802.982910 759.999390,802.997009 759.609497,803.000000 
	C757.899902,803.514587 756.537109,803.937378 755.268250,804.553467 
	C750.181702,807.023621 745.124207,809.553650 739.546021,811.868408 
	C738.680176,811.600769 738.324341,811.526184 737.968506,811.451660 
M867.186218,738.569885 
	C867.235901,739.306274 867.285583,740.042725 867.335266,740.779114 
	C868.019775,740.436279 868.704285,740.093445 869.388733,739.750610 
	C868.847778,739.256287 868.306824,738.761902 867.186218,738.569885 
M839.078613,755.322327 
	C838.573303,755.502747 838.067932,755.683105 837.562622,755.863464 
	C837.825867,756.168701 838.089111,756.473938 838.352417,756.779175 
	C838.726501,756.430542 839.100647,756.081970 839.078613,755.322327 
z"/>
<path fill="#232223" opacity="1.000000" stroke="none" 
	d="
M675.595032,892.302246 
	C676.499878,893.013733 677.839294,894.074097 677.900146,895.203430 
	C678.401123,904.487366 678.664551,913.784119 679.000000,923.871460 
	C679.000000,925.111389 679.000000,925.556946 679.000000,926.002441 
	C678.670593,934.871704 678.370789,943.742310 677.993896,952.609558 
	C677.879822,955.292236 679.212708,956.170715 681.649048,955.997986 
	C686.437256,955.658569 691.225952,955.052002 696.015259,955.043640 
	C739.128357,954.968872 782.241699,955.000122 825.354919,955.000122 
	C833.933472,955.000122 842.511963,955.000305 851.544067,955.000183 
	C852.442566,955.000000 852.887512,955.000000 854.039307,955.008179 
	C856.828796,955.677490 858.911499,956.338745 860.994141,957.000000 
	C861.121704,958.296814 861.249207,959.593689 861.688843,961.399475 
	C862.005493,964.942139 862.010071,967.975891 862.014648,971.009583 
	C862.013123,972.071106 862.011597,973.132629 862.007751,975.061584 
	C862.008484,981.955566 862.011536,987.982178 862.014648,994.008728 
	C862.012756,1013.357910 862.010864,1032.707153 862.006836,1052.993652 
	C862.007263,1060.289429 862.009644,1066.648071 862.012024,1073.006592 
	C862.010925,1074.391479 862.009766,1075.776245 862.006592,1077.953857 
	C862.007080,1079.500854 862.009644,1080.255371 862.012207,1081.009766 
	C862.018127,1084.406860 862.024048,1087.803833 861.668945,1091.600098 
	C860.840393,1091.999878 860.372742,1092.000488 859.905151,1092.000977 
	C859.905151,1048.064209 859.905151,1004.127380 859.905151,959.508057 
	C798.367859,959.508057 737.234680,959.508057 675.437073,959.508057 
	C675.437073,936.782043 675.437073,914.732605 675.595032,892.302246 
z"/>
<path fill="#232223" opacity="1.000000" stroke="none" 
	d="
M679.000000,871.002441 
	C679.000183,873.044067 679.000427,875.085693 679.001465,877.897400 
	C679.002380,879.110840 679.002380,879.554199 679.002441,879.997559 
	C678.175171,882.962585 677.347839,885.927551 676.134460,888.986267 
	C675.575378,876.318481 675.266541,863.555603 675.405762,850.797546 
	C675.422668,849.246521 677.567749,847.255371 679.207092,846.258301 
	C693.251221,837.716492 707.397888,829.342957 721.532043,820.949646 
	C726.830933,817.803040 732.177612,814.737061 737.735474,811.542969 
	C738.324341,811.526184 738.680176,811.600769 739.462769,812.196655 
	C735.925537,815.152161 731.961548,817.586304 727.997559,820.020508 
	C727.487366,820.571777 726.977173,821.123047 725.917114,821.888306 
	C724.578552,823.063293 723.789795,824.024292 723.001038,824.985291 
	C722.450989,825.167725 721.900940,825.350098 720.799194,825.773315 
	C717.499695,827.673401 714.751953,829.332642 712.004211,830.991882 
	C712.004211,830.991882 712.000000,831.000000 711.644409,831.005615 
	C709.859314,832.005066 708.429810,832.998901 707.000244,833.992676 
	C706.366089,834.451172 705.731934,834.909668 705.040588,835.681702 
	C702.034790,837.431946 699.086243,838.868713 695.818237,840.651550 
	C695.331726,840.998352 695.164612,840.999146 694.650879,841.004578 
	C693.202759,841.671936 692.101379,842.334717 690.655151,843.039917 
	C688.538513,844.054810 686.766846,845.027405 684.995117,846.000000 
	C679.387634,848.945801 676.745972,853.112122 678.901672,859.638916 
	C679.446838,861.289551 678.994202,863.269653 679.000000,865.966003 
	C679.000000,868.223206 679.000000,869.612854 679.000000,871.002441 
z"/>
<path fill="#151513" opacity="1.000000" stroke="none" 
	d="
M1012.309448,633.976257 
	C1012.235474,610.583008 1012.147644,587.189819 1012.093323,563.796509 
	C1012.067139,552.511719 1012.103821,541.226868 1012.486511,529.490173 
	C1013.241516,529.023132 1013.621948,529.007935 1014.002441,528.992676 
	C1014.002441,563.684814 1014.002502,598.376953 1013.720520,633.534241 
	C1013.062195,633.991699 1012.685791,633.984009 1012.309448,633.976257 
z"/>
<path fill="#242325" opacity="1.000000" stroke="none" 
	d="
M728.204224,820.271973 
	C731.961548,817.586304 735.925537,815.152161 739.972778,812.389771 
	C745.124207,809.553650 750.181702,807.023621 755.268250,804.553467 
	C756.537109,803.937378 757.899902,803.514587 759.601807,803.002686 
	C760.322388,805.233154 760.908936,807.459290 760.950439,809.695496 
	C761.056641,815.416870 759.771729,816.627075 753.408936,816.999695 
	C752.525574,815.507507 752.051147,814.015076 751.576721,812.522583 
	C750.406250,813.263550 749.233154,814.000366 748.069092,814.751160 
	C747.935364,814.837341 747.843323,815.119568 747.746399,815.112488 
	C741.015259,814.620605 736.381470,819.619629 730.594849,821.573608 
	C730.047546,821.758423 729.147278,820.898438 728.204224,820.271973 
z"/>
<path fill="#242325" opacity="1.000000" stroke="none" 
	d="
M859.802856,1092.060547 
	C860.372742,1092.000488 860.840393,1091.999878 861.658875,1091.997314 
	C863.217102,1093.763428 864.424500,1095.531860 865.631897,1097.300049 
	C864.211609,1097.689819 862.805481,1098.351440 861.368896,1098.425903 
	C850.272705,1099.002319 839.172974,1099.575073 828.067139,1099.813599 
	C826.770020,1099.841431 825.429077,1097.827881 824.049561,1096.389648 
	C835.268799,1096.321167 846.549133,1096.561646 857.823792,1096.962646 
	C861.455261,1097.091797 860.492188,1095.113892 859.833618,1092.750000 
	C859.755737,1092.350098 859.700562,1092.119995 859.802856,1092.060547 
z"/>
<path fill="#151513" opacity="1.000000" stroke="none" 
	d="
M1012.301880,712.976868 
	C1012.239807,689.298279 1012.177673,665.619751 1012.492554,641.482605 
	C1013.246948,641.014832 1013.624390,641.005554 1014.001831,640.996338 
	C1014.001221,664.686829 1014.000610,688.377319 1013.717651,712.527649 
	C1013.057556,712.983948 1012.679688,712.980408 1012.301880,712.976868 
z"/>
<path fill="#232223" opacity="1.000000" stroke="none" 
	d="
M1012.294861,507.017334 
	C1012.294861,503.322815 1012.294861,499.628326 1012.294861,494.896423 
	C1005.870483,498.638550 1000.434021,501.805267 994.283325,505.014709 
	C993.053589,505.048584 992.537964,505.039673 992.008423,505.013611 
	C991.994446,504.996429 991.964294,504.963562 991.964355,504.963562 
	C993.200012,503.534363 994.248596,501.867035 995.706787,500.720825 
	C999.940613,497.392822 1004.205078,494.063507 1008.740845,491.180389 
	C1010.460449,490.087311 1012.953674,490.211365 1015.675781,490.835480 
	C1014.904663,491.930359 1014.133545,493.025208 1013.362427,494.120056 
	C1013.738525,494.114136 1014.114563,494.108185 1014.490662,494.102264 
	C1014.490662,498.229034 1014.490662,502.355835 1013.968811,506.744873 
	C1013.062927,507.010529 1012.678894,507.013916 1012.294861,507.017334 
z"/>
<path fill="#151513" opacity="1.000000" stroke="none" 
	d="
M928.992065,845.920105 
	C950.013550,845.833313 971.035034,845.746460 992.528931,846.123657 
	C993.006592,847.060852 993.011841,847.534119 993.017090,848.007324 
	C971.982666,848.006836 950.948242,848.006348 929.445068,847.660156 
	C928.981567,846.849670 928.986816,846.384888 928.992065,845.920105 
z"/>
<path fill="#151513" opacity="1.000000" stroke="none" 
	d="
M1012.311340,793.976196 
	C1012.245911,775.297852 1012.180542,756.619568 1012.491333,737.492554 
	C1013.245056,737.028442 1013.622559,737.012939 1014.000000,736.997559 
	C1013.999512,755.686707 1013.999084,774.375793 1013.718567,793.525269 
	C1013.062744,793.982422 1012.687073,793.979309 1012.311340,793.976196 
z"/>
<path fill="#242325" opacity="1.000000" stroke="none" 
	d="
M752.580261,817.000000 
	C752.987366,820.657776 753.364319,824.377869 752.793152,827.946228 
	C752.518738,829.660278 750.453430,831.087646 749.199219,832.644897 
	C747.810181,831.054749 746.101318,829.632385 745.146423,827.814148 
	C744.528503,826.637512 745.026733,824.881409 745.001526,823.385437 
	C744.918701,818.483093 747.323730,816.381104 752.580261,817.000000 
z"/>
<path fill="#232223" opacity="1.000000" stroke="none" 
	d="
M883.029175,846.297546 
	C892.738342,845.849487 902.494812,845.755737 912.624512,846.139893 
	C912.991699,847.081848 912.985535,847.545776 912.979370,848.009766 
	C906.639404,848.009277 900.299438,848.008850 893.269531,847.757690 
	C891.384338,847.672180 890.189087,847.837341 888.993896,848.002441 
	C886.888245,848.135620 884.282166,850.461609 883.029175,846.297546 
z"/>
<path fill="#242325" opacity="1.000000" stroke="none" 
	d="
M862.371582,993.956055 
	C862.011536,987.982178 862.008484,981.955566 862.010254,975.459595 
	C863.071838,975.311584 864.454224,975.314819 865.131165,976.007446 
	C868.735352,979.694885 867.163025,990.794800 862.371582,993.956055 
z"/>
<path fill="#151513" opacity="1.000000" stroke="none" 
	d="
M1012.348328,840.974121 
	C1012.275879,830.963562 1012.203430,820.953003 1012.504272,810.494507 
	C1013.251770,810.031799 1013.625854,810.017090 1014.000000,810.002441 
	C1014.002869,818.021240 1014.005737,826.040039 1014.005371,834.944336 
	C1014.001404,837.219849 1014.000732,838.609924 1014.000000,840.000000 
	C1014.000000,840.000000 1013.995178,840.496338 1013.720581,840.738586 
	C1013.080139,840.978577 1012.714233,840.976318 1012.348328,840.974121 
z"/>
<path fill="#232223" opacity="1.000000" stroke="none" 
	d="
M1014.001526,736.529175 
	C1013.622559,737.012939 1013.245056,737.028442 1012.584412,737.033752 
	C1012.227661,729.313721 1012.154114,721.603882 1012.191284,713.435425 
	C1012.679688,712.980408 1013.057556,712.983948 1013.718872,712.996704 
	C1014.002686,720.690857 1014.002869,728.375793 1014.001526,736.529175 
z"/>
<path fill="#242325" opacity="1.000000" stroke="none" 
	d="
M862.397217,1072.894531 
	C862.009644,1066.648071 862.007263,1060.289429 862.009033,1053.461792 
	C862.459656,1053.194092 863.299194,1053.402954 863.295532,1053.595825 
	C863.174316,1059.992310 862.972351,1066.387329 862.397217,1072.894531 
z"/>
<path fill="#232223" opacity="1.000000" stroke="none" 
	d="
M1014.001404,809.535339 
	C1013.625854,810.017090 1013.251770,810.031799 1012.597046,810.035767 
	C1012.241272,804.980103 1012.166199,799.935242 1012.201172,794.433289 
	C1012.687073,793.979309 1013.062744,793.982422 1013.720459,793.994080 
	C1014.002563,799.024475 1014.002686,804.046326 1014.001404,809.535339 
z"/>
<path fill="#232223" opacity="1.000000" stroke="none" 
	d="
M1014.003540,528.526611 
	C1013.621948,529.007935 1013.241516,529.023132 1012.575562,529.030640 
	C1012.217834,523.981201 1012.145569,518.939514 1012.463745,513.432007 
	C1013.236877,512.978943 1013.619568,512.991638 1014.002197,513.004395 
	C1014.002991,518.023071 1014.003845,523.041809 1014.003540,528.526611 
z"/>
<path fill="#242325" opacity="1.000000" stroke="none" 
	d="
M712.454590,830.993835 
	C714.751953,829.332642 717.499695,827.673401 720.616394,826.005127 
	C721.853882,833.419678 716.232361,830.353821 712.454590,830.993835 
z"/>
<path fill="#242325" opacity="1.000000" stroke="none" 
	d="
M862.411987,970.984863 
	C862.010071,967.975891 862.005493,964.942139 862.001709,961.454224 
	C865.915527,963.888672 866.263184,968.180359 862.411987,970.984863 
z"/>
<path fill="#242325" opacity="1.000000" stroke="none" 
	d="
M861.333862,956.990173 
	C858.911499,956.338745 856.828796,955.677490 854.373047,955.008179 
	C856.669983,952.242310 861.044800,952.195862 862.835754,955.024475 
	C863.019531,955.314880 862.087708,956.311523 861.333862,956.990173 
z"/>
<path fill="#232223" opacity="1.000000" stroke="none" 
	d="
M1011.844727,1206.332275 
	C1009.911438,1206.464966 1007.803589,1206.400146 1005.327637,1206.226074 
	C1005.632385,1205.420044 1006.202209,1204.554688 1007.002258,1204.066528 
	C1008.194153,1203.339478 1009.548462,1202.878784 1010.833740,1202.304810 
	C1011.112549,1203.581543 1011.391418,1204.858154 1011.844727,1206.332275 
z"/>
<path fill="#232223" opacity="1.000000" stroke="none" 
	d="
M993.458618,848.007202 
	C993.011841,847.534119 993.006592,847.060852 992.984436,846.233154 
	C995.425293,845.795410 997.883118,845.712036 1000.670288,846.112427 
	C1000.993469,847.066589 1000.987183,847.536926 1000.980957,848.007324 
	C998.620667,848.007263 996.260376,848.007202 993.458618,848.007202 
z"/>
<path fill="#232223" opacity="1.000000" stroke="none" 
	d="
M1012.248291,841.341309 
	C1012.714233,840.976318 1013.080139,840.978577 1013.720703,840.986755 
	C1013.444946,843.820068 1015.988464,848.473450 1009.556519,847.736328 
	C1009.488281,846.921997 1009.719543,846.377808 1009.950806,845.833740 
	C1010.683289,844.458618 1011.415771,843.083557 1012.248291,841.341309 
z"/>
<path fill="#232223" opacity="1.000000" stroke="none" 
	d="
M991.038269,507.112091 
	C990.038879,507.757690 989.039429,508.403290 987.744507,509.109070 
	C986.527588,508.991058 985.606323,508.812836 984.684998,508.634583 
	C984.548096,508.158234 984.411133,507.681885 984.274231,507.205536 
	C986.573364,506.464691 988.872437,505.723846 991.567932,504.973267 
	C991.964294,504.963562 991.994446,504.996429 991.883911,505.273834 
	C991.528320,506.071503 991.283264,506.591797 991.038269,507.112091 
z"/>
<path fill="#151513" opacity="1.000000" stroke="none" 
	d="
M913.426514,848.007080 
	C912.985535,847.545776 912.991699,847.081848 913.010742,846.270264 
	C915.728271,845.851868 918.432861,845.781189 921.471313,846.084106 
	C921.543396,846.975037 921.281494,847.492432 921.019531,848.009766 
	C918.637573,848.007996 916.255676,848.006165 913.426514,848.007080 
z"/>
<path fill="#242325" opacity="1.000000" stroke="none" 
	d="
M707.154053,834.279419 
	C708.429810,832.998901 709.859314,832.005066 711.639526,831.005615 
	C710.906433,832.815002 711.952698,837.426880 707.154053,834.279419 
z"/>
<path fill="#151513" opacity="1.000000" stroke="none" 
	d="
M1009.512512,845.741699 
	C1009.719543,846.377808 1009.488281,846.921997 1009.135376,847.736694 
	C1006.633911,848.006348 1004.254089,848.005371 1001.427612,848.005859 
	C1000.987183,847.536926 1000.993469,847.066589 1001.016846,846.243835 
	C1003.714111,845.810913 1006.394165,845.730347 1009.512512,845.741699 
z"/>
<path fill="#232223" opacity="1.000000" stroke="none" 
	d="
M921.461182,848.008911 
	C921.281494,847.492432 921.543396,846.975037 921.912109,846.187988 
	C924.061462,845.836609 926.103943,845.754944 928.569275,845.796753 
	C928.986816,846.384888 928.981567,846.849670 928.974731,847.663208 
	C926.616333,848.010681 924.259521,848.009399 921.461182,848.008911 
z"/>
<path fill="#232223" opacity="1.000000" stroke="none" 
	d="
M1014.002197,640.559937 
	C1013.624390,641.005554 1013.246948,641.014832 1012.586426,641.023987 
	C1012.230225,638.960938 1012.157043,636.897949 1012.196655,634.405640 
	C1012.685791,633.984009 1013.062195,633.991699 1013.721069,634.003357 
	C1014.003296,636.046082 1014.002930,638.084778 1014.002197,640.559937 
z"/>
<path fill="#151513" opacity="1.000000" stroke="none" 
	d="
M1013.999878,512.575439 
	C1013.619568,512.991638 1013.236877,512.978943 1012.567139,512.974121 
	C1012.223755,511.272949 1012.167419,509.563934 1012.203003,507.436127 
	C1012.678894,507.013916 1013.062927,507.010529 1013.735718,507.002472 
	C1014.015503,508.714020 1014.006531,510.430206 1013.999878,512.575439 
z"/>
<path fill="#232223" opacity="1.000000" stroke="none" 
	d="
M928.835754,1205.901489 
	C927.571960,1206.256348 926.065247,1206.315674 924.281616,1205.964844 
	C924.018616,1205.364868 924.032715,1205.175171 924.046875,1204.985352 
	C925.562195,1205.192261 927.077576,1205.399170 928.835754,1205.901489 
z"/>
<path fill="#232223" opacity="1.000000" stroke="none" 
	d="
M1014.350525,839.918457 
	C1014.000732,838.609924 1014.001404,837.219849 1014.009644,835.412720 
	C1016.865295,836.239197 1016.712830,837.906738 1014.350525,839.918457 
z"/>
<path fill="#242325" opacity="1.000000" stroke="none" 
	d="
M862.348267,1080.998169 
	C862.009644,1080.255371 862.007080,1079.500854 862.008423,1078.369263 
	C862.858948,1078.606201 863.705750,1079.220459 864.552490,1079.834595 
	C863.929749,1080.218628 863.307007,1080.602539 862.348267,1080.998169 
z"/>
<path fill="#242325" opacity="1.000000" stroke="none" 
	d="
M723.367188,824.977173 
	C723.789795,824.024292 724.578552,823.063293 725.683594,822.051147 
	C725.244446,822.989685 724.488953,823.979370 723.367188,824.977173 
z"/>
<path fill="#232223" opacity="1.000000" stroke="none" 
	d="
M937.011230,1205.878662 
	C936.485596,1206.261475 935.907715,1206.335938 935.136963,1206.295410 
	C935.194031,1205.644287 935.444031,1205.108398 935.694092,1204.572388 
	C936.115784,1204.905029 936.537476,1205.237793 937.011230,1205.878662 
z"/>
<path fill="#151513" opacity="1.000000" stroke="none" 
	d="
M889.396790,848.002258 
	C890.189087,847.837341 891.384338,847.672180 892.802734,847.757568 
	C891.950500,848.006104 890.875122,848.004089 889.396790,848.002258 
z"/>
<path fill="#242325" opacity="1.000000" stroke="none" 
	d="
M760.216309,802.868164 
	C760.127136,802.679749 760.316345,802.429626 760.782959,802.116394 
	C760.872314,802.304321 760.683777,802.555359 760.216309,802.868164 
z"/>
<path fill="#151513" opacity="1.000000" stroke="none" 
	d="
M923.810547,1205.115723 
	C924.032715,1205.175171 924.018616,1205.364868 923.982178,1205.839111 
	C923.795654,1206.182251 923.631470,1206.240845 923.220215,1206.214355 
	C923.173401,1205.834717 923.373779,1205.540405 923.810547,1205.115723 
z"/>
<path fill="#272627" opacity="1.000000" stroke="none" 
	d="
M991.363831,507.048065 
	C991.283264,506.591797 991.528320,506.071503 991.897888,505.291016 
	C992.537964,505.039673 993.053589,505.048584 993.954590,505.092957 
	C993.456421,505.746948 992.572937,506.365509 991.363831,507.048065 
z"/>
<path fill="#272627" opacity="1.000000" stroke="none" 
	d="
M800.998779,1097.997559 
	C802.933044,1097.215332 804.868591,1096.435547 806.804138,1095.655762 
	C806.971008,1096.438599 807.137817,1097.221558 807.304626,1098.004395 
	C805.486328,1098.004395 803.667969,1098.004395 801.426025,1098.004639 
	C801.002441,1098.004883 801.000000,1098.000000 800.998779,1097.997559 
z"/>
<path fill="#272627" opacity="1.000000" stroke="none" 
	d="
M712.577148,1222.349487 
	C712.683289,1221.943604 712.942139,1221.697876 713.201050,1221.452148 
	C713.302734,1221.559204 713.404419,1221.666382 713.506104,1221.773560 
	C713.247314,1222.018921 712.988586,1222.264282 712.577148,1222.349487 
z"/>
<path fill="#272627" opacity="1.000000" stroke="none" 
	d="
M694.997559,841.000000 
	C695.164612,840.999146 695.331726,840.998352 695.749390,840.996338 
	C696.264099,841.590515 696.706665,842.170654 696.759155,842.784119 
	C696.926392,844.737610 696.948425,846.703552 697.026550,848.664673 
	C695.294006,848.115173 693.593140,847.401062 691.820618,847.058960 
	C689.746399,846.658752 687.609558,846.582642 685.247559,846.182983 
	C686.766846,845.027405 688.538513,844.054810 690.950562,843.167236 
	C692.726501,842.501465 693.862000,841.750732 694.997559,841.000000 
z"/>
<path fill="#272627" opacity="1.000000" stroke="none" 
	d="
M679.383423,870.985718 
	C679.000000,869.612854 679.000000,868.223206 679.000000,866.416809 
	C679.974548,866.623962 680.949036,867.247925 681.923584,867.871887 
	C681.204651,868.904236 680.485718,869.936584 679.383423,870.985718 
z"/>
<path fill="#272627" opacity="1.000000" stroke="none" 
	d="
M711.871704,952.453186 
	C712.842712,952.248230 713.587952,952.248230 714.333130,952.248230 
	C714.253967,952.683167 714.174744,953.118164 714.095520,953.553101 
	C713.278992,953.254822 712.462463,952.956482 711.871704,952.453186 
z"/>
<path fill="#272627" opacity="1.000000" stroke="none" 
	d="
M679.335693,925.994202 
	C679.000000,925.556946 679.000000,925.111389 679.000000,924.331726 
	C679.806458,924.298584 680.612915,924.599670 681.419373,924.900696 
	C680.836670,925.262451 680.254028,925.624207 679.335693,925.994202 
z"/>
<path fill="#272627" opacity="1.000000" stroke="none" 
	d="
M679.337769,879.990601 
	C679.002380,879.554199 679.002380,879.110840 679.002441,878.334961 
	C679.808167,878.301880 680.613892,878.601379 681.419617,878.900879 
	C680.837463,879.261780 680.255310,879.622681 679.337769,879.990601 
z"/>
<path fill="#272627" opacity="1.000000" stroke="none" 
	d="
M683.955322,952.547729 
	C683.737854,952.188782 683.740417,951.832520 683.768616,951.478333 
	C683.769348,951.468567 684.174133,951.474609 684.174561,951.483765 
	C684.191650,951.838623 684.183594,952.194763 683.955322,952.547729 
z"/>
<path fill="#272627" opacity="1.000000" stroke="none" 
	d="
M867.476074,738.418701 
	C868.306824,738.761902 868.847778,739.256287 869.388733,739.750610 
	C868.704285,740.093445 868.019775,740.436279 867.335266,740.779114 
	C867.285583,740.042725 867.235901,739.306274 867.476074,738.418701 
z"/>
<path fill="#272627" opacity="1.000000" stroke="none" 
	d="
M839.276672,755.527832 
	C839.100647,756.081970 838.726501,756.430542 838.352417,756.779175 
	C838.089111,756.473938 837.825867,756.168701 837.562622,755.863464 
	C838.067932,755.683105 838.573303,755.502747 839.276672,755.527832 
z"/>
<path fill="#242325" opacity="1.000000" stroke="none" 
	d="
M694.650879,841.004578 
	C693.862000,841.750732 692.726501,842.501465 691.295471,843.124878 
	C692.101379,842.334717 693.202759,841.671936 694.650879,841.004578 
z"/>
</svg>